PathFileType	4	(X/Y/Z)	S01_0019_Gait_markers.trc
DataRate	CameraRate	NumFrames	NumMarkers	Units	OrigDataRate	OrigDataStartFrame	OrigNumFrames
250.000000	250.000000	4	54	mm	250.000000	272	363
Frame#	Time	HEAD_ANT			R_HEAD			L_HEAD			C7			R_BACK			L_BACK			STERNUM			R_ACROMION			R_HUM_PROX			R_HUM_ANT			R_HUM_POST			R_ELBOW_LAT			R_ELBOW_MED			R_FOREARM			R_WIRST_LAT			R_WRITS_MED			R_HAND			L_ACROMION			L_HUM_PROX			L_HUM_ANT			L_HUM_POST			L_ELBOW_LAT			L_ELBOW_MED			L_FOREARM			L_WRIST_LAT			L_WIRST_MED			L_HAND			R_ILIAC			SACRUM			L_ILIAC			R_GTROCH			R_THIGH__1			R_THIGH_2			R_THIGH_3			R_THIGH_4			R_SHANK_1			R_SHANK_2			R_SHANK_3			R_SHANK_4			R_HEEL			R_FOOT_LAT			R_FOOT_MED			L_GTROCH			L_THIGH_1			L_THIGH_2			L_THIGH_3			L_THIGH_4			L_SHANK_1			L_SHANK_2			L_SHANK_3			L_SHANK_4			L_HEEL			L_FOOT_LAT			L_FOOT_MED			
		X1	Y1	Z1	X2	Y2	Z2	X3	Y3	Z3	X4	Y4	Z4	X5	Y5	Z5	X6	Y6	Z6	X7	Y7	Z7	X8	Y8	Z8	X9	Y9	Z9	X10	Y10	Z10	X11	Y11	Z11	X12	Y12	Z12	X13	Y13	Z13	X14	Y14	Z14	X15	Y15	Z15	X16	Y16	Z16	X17	Y17	Z17	X18	Y18	Z18	X19	Y19	Z19	X20	Y20	Z20	X21	Y21	Z21	X22	Y22	Z22	X23	Y23	Z23	X24	Y24	Z24	X25	Y25	Z25	X26	Y26	Z26	X27	Y27	Z27	X28	Y28	Z28	X29	Y29	Z29	X30	Y30	Z30	X31	Y31	Z31	X32	Y32	Z32	X33	Y33	Z33	X34	Y34	Z34	X35	Y35	Z35	X36	Y36	Z36	X37	Y37	Z37	X38	Y38	Z38	X39	Y39	Z39	X40	Y40	Z40	X41	Y41	Z41	X42	Y42	Z42	X43	Y43	Z43	X44	Y44	Z44	X45	Y45	Z45	X46	Y46	Z46	X47	Y47	Z47	X48	Y48	Z48	X49	Y49	Z49	X50	Y50	Z50	X51	Y51	Z51	X52	Y52	Z52	X53	Y53	Z53	X54	Y54	Z54	

273	1.088	1535.728881835938	1745.241088867188	-317.9188537597652	1476.444213867188	1693.736938476562	-241.5916900634762	1477.171752929688	1696.599853515625	-388.5108032226559	1340.02734375	1524.37353515625	-320.2722778320309	1265.566772460938	1325.4267578125	-259.163635253906	1273.578735351562	1330.400512695312	-398.7156677246091	1519.842651367188	1364.485961914062	-312.0685729980466	1408.289306640625	1474.712768554688	-144.7870025634762	1359.632934570312	1315.799438476562	-55.35523986816377	1419.128295898438	1229.392822265625	-44.43491363525364	1297.8076171875	1233.99609375	-46.93946838378879	1344.648803710938	1126.798461914062	-31.8706722259519	1323.825439453125	1122.028198242188	-113.6724166870115	1453.866821289062	948.4203491210938	-33.08420562744119	1496.032104492188	885.9627075195312	-73.47248840332011	1430.722534179688	857.3326416015625	-36.35625839233379	1506.46875	798.3134155273438	-19.28216171264631	1428.83740234375	1481.104248046875	-483.2351684570309	1417.708251953125	1316.235961914063	-584.2952270507809	1482.400024414062	1237.816162109375	-580.6942138671873	1363.643920898438	1237.61669921875	-615.9674072265623	1427.324340820312	1135.5791015625	-622.130432128906	1370.911865234375	1124.8330078125	-568.7133789062498	1556.3017578125	980.7097167968751	-580.132873535156	1588.630249023438	927.6083984375001	-520.725158691406	1558.858032226562	896.1073608398439	-585.6156616210935	1640.766967773438	854.4806518554689	-558.2510986328123	1409.8828125	1081.309448242188	-145.3938751220701	1287.0908203125	1049.809936523438	-316.6335754394529	1414.269653320312	1068.726928710938	-488.4523925781248	1373.510498046875	929.4089965820312	-123.7086257934568	1494.626953125	659.0203247070312	-139.0515899658202	1544.018310546875	690.420166015625	-131.4344635009764	1579.011962890625	593.4356689453125	-163.366500854492	1514.942626953125	580.18603515625	-160.9884796142577	1524.18359375	363.9521179199219	-153.4577026367187	1581.572998046875	347.0180664062501	-162.694854736328	1584.513427734375	262.2661437988282	-178.6893615722656	1520.308471679688	264.1077575683594	-173.6385040283203	1508.251342773438	47.56590652465826	-259.3152160644531	1662.854614257812	34.98399734497074	-160.6920928955078	1720.5576171875	62.36929702758795	-241.6743316650391	1372.6455078125	958.0917358398439	-488.9239196777341	1409.029663085938	662.5803222656251	-460.609649658203	1360.961181640625	690.3807373046876	-480.0960693359373	1327.67041015625	593.8741455078126	-445.9242858886718	1390.519775390625	586.4645385742189	-435.8931579589843	1296.1572265625	328.4545288085939	-422.3183593749999	1236.399536132812	317.3108520507814	-427.9027099609374	1216.09765625	234.5023193359376	-407.6162719726562	1278.980224609375	229.6389465332032	-394.6798095703124	1135.607055664062	61.39054107666023	-332.3974914550781	1309.138671875	21.3686294555665	-398.3520812988281	1344.757568359375	25.76143264770514	-291.3529968261719	
274	1.092	1541.359252929688	1744.382568359375	-317.6453247070309	1482.147583007812	1692.735473632812	-241.2506561279293	1482.915405273438	1695.643188476562	-388.2673339843746	1345.5888671875	1523.559448242188	-320.2163391113278	1270.947265625	1324.4912109375	-259.0556335449216	1278.645751953125	1329.771850585938	-398.9988098144528	1525.35498046875	1363.490844726562	-311.9757385253903	1413.739868164062	1473.776733398438	-144.5824432373043	1364.966674804688	1314.896118164062	-55.23859024047822	1424.687622070312	1228.43359375	-44.4311332702634	1303.292602539062	1232.967895507812	-46.98699951171847	1350.301513671875	1125.826782226562	-31.88797569274877	1329.136474609375	1121.049926757812	-113.7336730957029	1459.286499023438	947.2098388671875	-33.26572799682596	1501.274536132812	884.8370361328125	-73.47396850585918	1436.052124023438	856.2268676757812	-36.5922088623045	1511.708129882812	797.2555541992188	-19.26333236694318	1434.348022460938	1480.160888671875	-483.0321655273434	1423.506713867188	1315.378173828125	-584.0988159179684	1488.272338867188	1237.06640625	-580.5589599609373	1369.636840820312	1236.648681640625	-616.0479736328123	1433.399291992188	1134.868774414063	-622.1462402343748	1376.739501953125	1123.783325195313	-568.918273925781	1562.982788085938	980.3590087890626	-579.6144409179685	1595.426635742188	927.6542358398439	-520.122619628906	1565.76513671875	895.8140869140626	-585.0502929687498	1647.769897460938	854.6023559570314	-557.4581909179685	1415.222290039062	1080.465576171875	-145.3144378662107	1292.3798828125	1048.915771484375	-316.2923889160154	1419.496826171875	1067.865356445312	-488.3006896972654	1378.862182617188	928.3372192382812	-123.6659927368162	1499.613159179688	657.9061889648438	-139.081817626953	1548.851318359375	689.330078125	-131.5028076171874	1584.23828125	592.620849609375	-163.6996765136717	1520.11181640625	578.9407348632812	-161.5262603759764	1533.759887695312	362.5776367187501	-153.5632171630859	1591.4208984375	346.8749084472657	-162.9897308349609	1596.268920898438	262.3098144531251	-178.9458465576171	1531.995849609375	262.6501159667969	-173.8581390380859	1524.823486328125	45.9876213073731	-259.3945922851562	1679.78955078125	36.10974884033207	-160.9334411621094	1736.850219726562	65.00583648681646	-242.1772308349609	1377.725708007812	957.4846191406251	-488.7205810546873	1411.64599609375	662.1559448242189	-460.9891662597655	1363.93994140625	690.3084716796876	-480.1996765136717	1329.97119140625	594.0424804687501	-445.8810119628905	1392.562866210938	585.9740600585939	-436.1298522949218	1297.065795898438	328.5848083496095	-422.4791564941406	1237.115234375	317.6395568847657	-428.0010375976562	1216.709716796875	234.9039916992188	-407.6824951171874	1279.551025390625	229.8421020507813	-394.8223571777343	1135.315307617188	62.28479003906257	-332.9725036621094	1309.026733398438	21.37854003906259	-398.3246765136719	1344.817260742188	25.81331634521491	-291.3681640625	
275	1.096	1546.874633789062	1743.384643554688	-317.4382324218746	1488.574829101562	1691.889282226562	-240.2519683837887	1488.367553710938	1694.626342773438	-388.0484619140621	1351.119018554688	1522.6279296875	-319.9194641113278	1276.349609375	1323.6259765625	-258.9728393554685	1284.025024414062	1329.052368164062	-398.7094726562497	1530.732055664062	1362.210205078125	-311.7644348144528	1419.058349609375	1472.769409179688	-144.4031829833981	1370.451782226562	1313.802368164062	-55.1651840209958	1430.157104492188	1227.4951171875	-44.23590850830051	1308.800048828125	1231.802612304688	-46.90024566650364	1355.98193359375	1124.800170898438	-31.94049835205053	1334.56689453125	1120.032470703125	-113.771057128906	1464.727416992188	946.1583862304688	-33.36417388915994	1506.63818359375	883.6911010742188	-73.74246215820293	1441.378173828125	855.1699829101562	-36.6103744506834	1516.112426757812	795.843505859375	-18.83858871459943	1440.1103515625	1479.253784179688	-482.8596496582028	1429.231567382812	1314.567260742188	-583.9006958007809	1494.303588867188	1236.2451171875	-580.521057128906	1375.555786132812	1235.679565429688	-615.9523925781248	1439.50732421875	1134.12158203125	-622.0632324218748	1383.190307617188	1122.742797851563	-568.8250732421873	1569.5712890625	979.9998779296876	-579.1356201171873	1602	927.4605712890626	-519.4476318359373	1572.637451171875	895.4318237304689	-584.4345092773435	1654.771728515625	854.7359008789064	-556.7702026367185	1420.597045898438	1079.404663085938	-145.1186523437498	1297.755004882812	1047.8896484375	-316.1250915527341	1425.0078125	1066.950561523438	-488.1889343261716	1384.348266601562	927.2843017578125	-123.8703384399412	1504.576049804688	656.727294921875	-139.2912445068358	1553.947387695312	688.125	-131.3946685791014	1589.330200195312	591.3897705078125	-163.7168731689452	1525.132568359375	577.9244995117188	-162.1815795898436	1543.158813476562	361.2558288574219	-153.7245635986327	1601.267211914062	346.8032836914063	-163.2838439941405	1607.75830078125	262.3245849609376	-178.1972198486328	1543.763793945312	261.2326354980469	-173.8611450195312	1541.280151367188	44.5915260314942	-259.3538208007812	1696.585815429688	37.65980148315433	-161.5593719482422	1752.975708007812	67.65817260742193	-242.6504821777343	1382.428466796875	956.9631347656251	-488.4861755371091	1414.3193359375	661.7783813476564	-461.269561767578	1366.74169921875	690.2935180664064	-480.4168395996092	1332.51416015625	594.8197021484376	-446.6473693847655	1394.800048828125	585.5950927734376	-436.2393188476561	1298.116333007812	328.7544860839845	-422.5957031249999	1238.08349609375	317.9316406250001	-427.9421997070312	1217.55078125	235.3542633056641	-407.5527648925781	1280.110107421875	230.1091308593751	-394.8345336914062	1135.495239257812	63.0860786437989	-332.756103515625	1308.882568359375	21.38173484802255	-398.2962951660156	1344.824462890625	25.84635353088385	-291.5144958496094	
276	1.1	1552.525390625	1742.46923828125	-317.1818542480465	1494.15380859375	1690.813354492188	-240.0192108154293	1494.186889648438	1693.777709960938	-387.7345886230465	1356.511474609375	1521.668701171875	-319.7839965820309	1282.934448242188	1323.017700195312	-259.0772399902341	1289.395263671875	1328.134521484375	-398.5759277343747	1536.188598632812	1361.289672851562	-311.5807800292966	1424.411376953125	1471.788818359375	-144.2037353515622	1375.951538085938	1312.79150390625	-54.96653747558565	1435.691284179688	1226.498291015625	-44.26512527465793	1314.097534179688	1230.809692382812	-46.90219497680637	1361.496948242188	1123.7314453125	-31.85848808288549	1340.0703125	1119.002685546875	-113.494934082031	1470.222534179688	944.8513793945312	-33.47928619384744	1511.97265625	882.4231567382812	-73.99617004394511	1446.718994140625	853.99169921875	-36.78423690795879	1521.280639648438	794.6897583007812	-19.05676460266096	1445.344848632812	1478.177734375	-482.7284545898434	1435.105102539062	1313.598510742188	-583.7272338867184	1500.203979492188	1235.467895507813	-580.217346191406	1381.358276367188	1234.707885742188	-615.811340332031	1445.569458007812	1133.280517578125	-622.0028076171873	1387.823486328125	1122.064697265625	-569.9208374023435	1576.121826171875	979.6546630859376	-578.6744384765623	1608.640380859375	927.3194580078126	-519.0306396484373	1579.57177734375	895.0790405273439	-583.9552001953123	1661.82666015625	854.6110839843751	-555.935607910156	1425.866821289062	1078.470703125	-145.069152832031	1303.036743164062	1046.93359375	-315.835998535156	1430.352416992188	1065.961669921875	-488.0541687011716	1389.755615234375	926.2101440429688	-124.0158081054686	1509.511474609375	655.3807373046875	-139.884567260742	1558.805053710938	687.0000610351562	-131.3541412353514	1594.403930664062	590.4237670898438	-163.8143615722655	1530.205078125	576.5762329101562	-162.5431213378905	1552.689575195312	359.9921264648438	-154.0245971679687	1611.163452148438	346.9624328613282	-163.4890136718749	1619.580932617188	262.3482971191407	-179.2093353271484	1555.309448242188	259.8586730957032	-174.0859222412109	1557.636596679688	43.34998703002935	-259.3117980957031	1713.213745117188	39.61208343505863	-161.75341796875	1768.801025390625	70.5273056030274	-243.2154693603515	1387.3544921875	956.3219604492189	-488.2963867187498	1417.055541992188	661.2142944335939	-461.5969848632811	1369.48876953125	690.1668090820314	-480.1205139160155	1334.936767578125	595.0114135742189	-446.566680908203	1397.499389648438	585.4749755859376	-436.7010803222655	1298.992309570312	328.9553527832032	-422.7326049804687	1239.188232421875	318.5695800781251	-428.0868225097656	1218.256713867188	235.9036712646485	-407.6257629394531	1280.68603515625	230.2855529785157	-394.8874816894531	1135.645263671875	64.00849151611335	-332.4512023925781	1308.763671875	21.37390518188485	-398.2260437011719	1344.8662109375	25.88397407531745	-291.5682067871094	
